<?xml version="1.0" encoding="UTF-8" standalone="no"?>
<!-- Created with Inkscape (http://www.inkscape.org/) -->

<svg
   xmlns:dc="http://purl.org/dc/elements/1.1/"
   xmlns:cc="http://creativecommons.org/ns#"
   xmlns:rdf="http://www.w3.org/1999/02/22-rdf-syntax-ns#"
   xmlns:svg="http://www.w3.org/2000/svg"
   xmlns="http://www.w3.org/2000/svg"
   xmlns:sodipodi="http://sodipodi.sourceforge.net/DTD/sodipodi-0.dtd"
   xmlns:inkscape="http://www.inkscape.org/namespaces/inkscape"
   width="210mm"
   height="297mm"
   viewBox="0 0 210 297"
   version="1.1"
   id="svg8"
   inkscape:version="0.92.3 (2405546, 2018-03-11)"
   sodipodi:docname="worldIcon.svg"
   inkscape:export-filename="C:\Users\Michal_PC\Desktop\world_icon_pressed.pl.png"
   inkscape:export-xdpi="36"
   inkscape:export-ydpi="36">
  <defs
     id="defs2" />
  <sodipodi:namedview
     id="base"
     pagecolor="#ffffff"
     bordercolor="#666666"
     borderopacity="1.0"
     inkscape:pageopacity="0.0"
     inkscape:pageshadow="2"
     inkscape:zoom="0.7"
     inkscape:cx="48.830146"
     inkscape:cy="942.24725"
     inkscape:document-units="mm"
     inkscape:current-layer="layer1"
     showgrid="false"
     inkscape:window-width="1920"
     inkscape:window-height="1017"
     inkscape:window-x="1272"
     inkscape:window-y="-8"
     inkscape:window-maximized="1" />
  <metadata
     id="metadata5">
    <rdf:RDF>
      <cc:Work
         rdf:about="">
        <dc:format>image/svg+xml</dc:format>
        <dc:type
           rdf:resource="http://purl.org/dc/dcmitype/StillImage" />
        <dc:title />
      </cc:Work>
    </rdf:RDF>
  </metadata>
  <g
     inkscape:label="Layer 1"
     inkscape:groupmode="layer"
     id="layer1">
    <circle
       style="fill:#00112b;fill-opacity:1;stroke:#000000;stroke-width:0.26483965;stroke-opacity:0"
       id="path830-3"
       cx="134.69656"
       cy="18.737547"
       r="42.36758"
       inkscape:export-xdpi="36"
       inkscape:export-ydpi="36" />
    <circle
       style="fill:#c8ab37;fill-opacity:1;stroke:#000000;stroke-width:0.25237659;stroke-opacity:0"
       id="path830"
       cx="134.69656"
       cy="18.737547"
       r="40.37381"
       inkscape:export-xdpi="36"
       inkscape:export-ydpi="36" />
    <path
       style="fill:#003380;fill-opacity:1;stroke-width:0.24977888"
       d="m 130.35699,58.607717 c -6.41941,-0.73971 -12.75616,-2.98318 -17.96305,-6.35964 -5.34537,-3.46626 -10.86075,-9.227562 -11.74701,-12.270783 -0.36918,-1.26767 -0.37085,-1.43943 -0.0177,-1.82893 0.46652,-0.51457 0.49798,-1.44105 0.0735,-2.16518 -0.16985,-0.28976 -0.61433,-1.09259 -0.987731,-1.78408 -0.373402,-0.69147 -0.999117,-1.74585 -1.390476,-2.34306 -1.412976,-2.15617 -2.323382,-4.563794 -2.457405,-6.498747 -0.0695,-1.003328 -0.345495,-2.661366 -0.613331,-3.684501 -0.29364,-1.12172 -0.496236,-2.756497 -0.510302,-4.117697 -0.01283,-1.241583 -0.03177,-2.76278 -0.04209,-3.38044 -0.0362,-2.167001 0.125402,-3.635208 0.604301,-5.4902532 0.683085,-2.645963 1.232138,-4.010691 1.537727,-3.822162 0.163984,0.101168 0.196934,-0.0047 0.08896,-0.285415 -0.108824,-0.283085 0.21194,-1.278368 0.877801,-2.723674 1.002879,-2.17684903 3.121666,-5.896163 3.358876,-5.896163 0.17417,0 -0.63219,1.478026 -1.601071,2.934669 -0.481183,0.72343097 -0.822779,1.36733097 -0.759103,1.43089397 0.06368,0.06358 0.502607,-0.471557 0.9754,-1.189158 0.725284,-1.10082797 0.963804,-1.29260997 1.526224,-1.22720897 0.36663,0.04263 0.76038,-0.07206 0.87501,-0.254817 0.11462,-0.182775 0.52157,-0.469652 0.90433,-0.637495 0.58572,-0.256855 0.71928,-0.244433 0.84339,0.07838 0.13098,0.340724 0.19812,0.337829 0.60078,-0.02593 0.42174,-0.38099 0.49012,-0.375302 0.98149,0.08168 l 0.52816,0.491185 -0.56,0.146188 -0.56001,0.146178 0.64957,0.510049 c 0.77295,0.60692597 1.09202,0.64058997 1.28611,0.135709 0.0791,-0.205884 0.0414,-0.37434 -0.0839,-0.37434 -0.29223,0 -0.11373,-0.942897 0.26466,-1.398024 0.35194,-0.423311 0.97884,-0.460285 0.97884,-0.05773 0,0.160128 0.068,0.223285 0.15108,0.14033 0.0831,-0.08291 -0.0208,-0.494713 -0.23084,-0.915044 -0.21006,-0.420322 -0.30617,-0.762509 -0.21358,-0.760405 0.38335,0.0085 0.82842,0.447251 0.78292,0.771421 -0.10161,0.723772 0.0274,0.99418 0.57292,1.200657 l 0.5625,0.21292 -0.625,0.257854 c -0.34375,0.141821 -0.81427,0.316701 -1.0456,0.38863 -0.32868,0.102187 -0.41372,0.412097 -0.3891,1.41798097 l 0.0315,1.287216 0.67421,-0.824619 c 0.37082,-0.453542 0.62241,-0.95938497 0.55909,-1.12410597 -0.0633,-0.164722 0.38513,-0.64307 0.99656,-1.063005 0.71926,-0.493986 1.24992,-1.108345 1.50326,-1.740379 0.21536,-0.537289 0.96048,-1.514575 1.65583,-2.171765 1.36277,-1.287988 1.54992,-1.639154 0.76426,-1.434063 -0.72384,0.188952 -0.61361,-0.341196 0.17836,-0.857773 1.39445,-0.909573 2.33204,-2.1240568 1.86311,-2.4133568 -0.19431,-0.119882 -1.24192,0.299176 -2.86534,1.1461758 -0.52188,0.272276 -1.12836,0.426302 -1.34773,0.342272 -0.21937,-0.08404 -0.67402,0.02716 -1.01032,0.247148 -0.33631,0.219966 -0.66828,0.343225 -0.73772,0.273917 -0.0694,-0.06933 0.35419,-0.44327 0.94139,-0.831003 0.5872,-0.3877338 1.63815,-1.3105868 2.33544,-2.0507798 1.54552,-1.640607 2.90456,-2.329724 3.90676,-1.980973 0.38279,0.1332 0.76252,0.415295 0.84386,0.626876 0.10279,0.267389 0.0351,0.341488 -0.22195,0.243017 -0.40329,-0.154489 -0.70429,0.190217 -0.82116,0.940388 -0.0728,0.467161 -0.0612,0.467689 0.43448,0.0199 0.54005,-0.487874 3.25084,-0.796671 3.25084,-0.370322 0,0.289499 -0.88782,0.772704 -1.0755,0.585355 -0.0777,-0.07753 -0.27323,-0.05951 -0.43456,0.03999 -0.21755,0.134219 -0.2057,0.236378 0.0459,0.395506 0.18656,0.117995 0.22669,0.223993 0.0892,0.235557 -0.1375,0.0116 -0.55263,0.06102 -0.9225,0.109978 -0.50098,0.06631 -0.63762,-0.0019 -0.53575,-0.266758 0.0752,-0.19564 0.009,-0.355713 -0.1462,-0.355713 -0.15561,0 -0.38555,0.269418 -0.51097,0.598712 -0.12541,0.329293 -0.44228,0.750416 -0.70414,0.9358408 -0.40301,0.285377 -1.05545,1.222134 -1.05545,1.515396 0,0.04848 0.25213,0.107045 0.5603,0.13021 0.30816,0.0232 0.89879,-0.260883 1.3125,-0.631242 0.41371,-0.370351 0.61158,-0.511408 0.4397,-0.313447 -0.43513,0.501164 -0.38986,0.729836 0.125,0.63145 0.24063,-0.04603 0.55388,-0.09225 0.6961,-0.102697 0.14223,-0.01047 0.45797,-0.355995 0.70164,-0.767762 0.24367,-0.411767 0.59859,-0.7486718 0.7887,-0.7486718 0.19011,0 0.8656,-0.449202 1.50108,-0.998234 0.63547,-0.549023 1.25283,-0.998226 1.3719,-0.998226 0.11906,0 0.38486,-0.336923 0.59065,-0.748709 0.35971,-0.719771 0.35121,-0.754472 -0.21996,-0.897566 -0.33542,-0.08404 -0.94257,0.02462 -1.39428,0.249591 -0.44007,0.219155 -1.03598,0.392338 -1.32423,0.384848 -0.31394,-0.0085 -0.0229,-0.216777 0.72592,-0.520292 0.86584,-0.350958 1.53812,-0.460917 2.1875,-0.357778 0.73571,0.116854 0.93751,0.06772 0.93751,-0.228379 0,-0.207506 0.1125,-0.377283 0.25,-0.377283 0.1375,0 0.25,-0.112298 0.25,-0.249563 0,-0.137256 -0.3375,-0.249555 -0.75,-0.249555 -0.41251,0 -0.75001,0.112299 -0.75001,0.249555 0,0.318483 -0.92226,0.327472 -1.11825,0.01085 -0.0813,-0.131256 -0.34104,-0.171465 -0.57726,-0.08932 -0.39393,0.136945 -0.39251,0.110214 0.0171,-0.322841 0.3564,-0.37684 0.4882,-0.404891 0.65292,-0.138944 0.16023,0.258703 0.41393,0.276001 1.13461,0.07734 0.51053,-0.140717 1.09577,-0.19167 1.30053,-0.113242 0.21259,0.0814 0.52213,-0.07093 0.72155,-0.355137 0.21354,-0.304326 0.7497,-0.551362 1.37971,-0.635713 1.22779,-0.164391 1.40732,-0.300874 1.0156,-0.772034 -0.2766,-0.332689 -1.27576,-0.285972 -1.27701,0.0597 -2.5e-4,0.08696 -0.34451,0.170353 -0.76488,0.185387 -0.98848,0.03537 -0.66851,-0.249827 0.84739,-0.755207 0.66383,-0.221315 1.5286,-0.568416 1.92172,-0.771347 0.47815,-0.246827 1.52691,-0.375575 3.16807,-0.388932 2.56047,-0.02084 4.66967,-0.382734 4.43544,-0.761037 -0.0751,-0.12139 0.12312,-0.229576 0.44061,-0.240413 0.31749,-0.01085 0.44295,-0.07423 0.2788,-0.140897 -0.16416,-0.06668 -0.23968,-0.274086 -0.16785,-0.460945 0.0858,-0.223239 -0.1119,-0.383198 -0.57655,-0.466464 -0.38893,-0.06971 0.47411,-0.07696 1.91786,-0.01622 6.18262,0.260249 13.16749,2.71592 19.11622,6.720697 2.6972,1.815807 4.13385,2.943196 4.13385,3.244013 0,0.08243 0.67676,0.775364 1.50392,1.5398058 0.82715,0.764441 1.69155,1.706962 1.92087,2.094497 0.22933,0.387527 0.49894,0.654021 0.59916,0.592203 0.39811,-0.245621 3.64734,4.494056 5.22941,7.62824297 1.3087,2.59261403 2.5676,6.03895503 3.41776,9.35640623 0.56406,2.201071 0.65022,3.114021 0.73001,7.736268 0.0498,2.882387 0.0268,5.100322 -0.0511,4.928753 -0.1697,-0.373869 -1.00675,-0.414804 -1.22644,-0.05999 -0.0858,0.138585 0.0764,0.546778 0.36025,0.907102 0.68022,0.863215 0.65855,1.985028 -0.094,4.865369 -1.20445,4.61013 -3.46734,9.47258 -6.2202,13.365914 -1.93735,2.739957 -6.15389,7.030249 -8.85784,9.012779 -5.18417,3.801 -11.11601,6.32126 -17.43684,7.4084 -2.7201,0.46783 -8.3341,0.66879 -10.78705,0.38613 z m 6.21283,-1.1071 c 1.63162,-0.13056 4.30324,-1.23271 4.83902,-1.99629 0.19878,-0.28329 0.72676,-0.68834 1.1733,-0.90011 0.64663,-0.30667 0.81191,-0.5357 0.81191,-1.1251 0,-0.63356 0.19786,-0.85532 1.375,-1.54114 2.43618,-1.41935 2.50001,-1.48821 2.50001,-2.69745 0,-0.60315 -0.10007,-1.15838 -0.22238,-1.23383 -0.49934,-0.308062 -0.4675,-2.005382 0.0541,-2.886942 0.28426,-0.48041 0.58148,-0.92961 0.6605,-0.99824 0.079,-0.0687 1.22361,-1.259557 2.54354,-2.646517 2.12967,-2.237814 2.48795,-2.749704 3.18204,-4.546364 0.4302,-1.11355 0.78217,-2.2605 0.78217,-2.54879 0,-0.51629 -0.0103,-0.5173 -0.6875,-0.0669 -0.37813,0.25151 -1.34204,0.7872 -2.14203,1.19041 -1.13326,0.57118 -1.54739,0.67331 -1.875,0.46243 -0.23127,-0.14887 -0.39497,-0.42422 -0.36379,-0.61191 0.0594,-0.35783 -1.17402,-1.26975 -2.12508,-1.57108 -0.30615,-0.097 -0.55663,-0.28076 -0.55663,-0.40837 0,-0.1276 -0.39375,-0.66708 -0.875,-1.19883 -0.48126,-0.53173 -0.875,-1.20586 -0.875,-1.49806 0,-0.29219 -0.253,-0.7838 -0.56223,-1.09248 -0.30924,-0.30869 -0.73111,-0.86105 -0.93751,-1.227499 -0.2064,-0.366436 -0.56918,-1.000989 -0.80618,-1.410115 -0.36623,-0.632195 -0.37852,-0.787286 -0.0818,-1.033076 0.2783,-0.230559 0.51777,-0.09823 1.18091,0.652576 0.45752,0.517973 1.14121,1.223332 1.51934,1.567462 0.37813,0.344119 0.6875,0.812482 0.6875,1.040802 0,0.22832 0.66244,1.10149 1.47208,1.94038 0.94565,0.9798 1.52809,1.81549 1.62869,2.33682 0.30144,1.56222 0.46181,1.60627 2.06355,0.56673 0.80339,-0.52141 1.5732,-1.0768 1.7107,-1.2342 0.1375,-0.1574 0.61695,-0.54333 1.06544,-0.85761 0.44849,-0.31429 0.75361,-0.6713 0.67801,-0.7934 -0.0756,-0.12208 0.25921,-0.47847 0.74398,-0.79197 0.48476,-0.3135 0.88279,-0.71039 0.88449,-0.88196 0.002,-0.17157 0.11838,-0.31195 0.25928,-0.31195 0.27109,0 0.86085,-1.217734 0.77244,-1.594923 -0.0286,-0.122296 0.13028,-0.606077 0.35322,-1.075069 0.47673,-1.002837 0.22074,-1.497945 -0.83764,-1.620044 -0.40667,-0.04688 -0.76602,-0.297488 -0.91599,-0.638712 -0.33238,-0.756255 -0.47409,-0.709679 -0.83,0.272804 -0.16857,0.46535 -0.58293,0.961978 -0.93699,1.123002 -0.82559,0.375501 -0.78078,0.393158 -0.97631,-0.384565 -0.12278,-0.488308 -0.22612,-0.581459 -0.37619,-0.339074 -0.15647,0.252733 -0.46325,0.08084 -1.25856,-0.705161 -0.86791,-0.857762 -0.99814,-1.103732 -0.74531,-1.407822 0.42645,-0.512937 0.93415,-0.459635 1.30551,0.137038 0.17304,0.27803 0.75317,0.623743 1.28918,0.768252 0.8364,0.225493 1.06927,0.192848 1.64254,-0.230237 0.56564,-0.417444 0.70359,-0.438063 0.90044,-0.134576 0.19978,0.307994 0.3907,0.310419 1.35748,0.01717 0.61874,-0.187661 1.61344,-0.649182 2.21043,-1.025579 1.07431,-0.677364 1.09473,-0.679968 1.9938,-0.254081 0.49962,0.23666 1.05984,0.581468 1.24495,0.766243 0.46418,0.463351 0.96339,0.420463 1.17281,-0.100763 0.13614,-0.338857 0.30313,-0.151932 0.74522,0.834107 0.31335,0.698975 1.08672,1.980087 1.71861,2.846933 0.63187,0.866836 1.19451,1.698717 1.25029,1.848621 0.0723,0.194311 0.1882,0.191283 0.40375,-0.01056 0.42488,-0.397807 0.62957,-3.133667 0.30418,-4.065424 -0.21573,-0.617745 -0.16994,-1.171248 0.2239,-2.706073 0.2723,-1.061214 0.54242,-2.647812 0.60024,-3.525778 0.0578,-0.877967 0.22365,-1.714611 0.3685,-1.859205 0.14486,-0.144594 0.26338,-0.516086 0.26338,-0.825533 v -0.562643 l 0.61364,0.612557 c 0.33749,0.336895 0.72909,0.612548 0.87022,0.612548 0.14113,0 0.32719,0.280746 0.41347,0.623894 0.21006,0.835408 0.60243,0.794842 0.6036,-0.06235 l 9.5e-4,-0.686288 0.47005,0.769469 c 0.25852,0.423207 0.54621,1.209315 0.63929,1.746896 0.0931,0.537591 0.43714,1.538939 0.7646,2.225226 l 0.59538,1.24778 0.0144,-1.060619 c 0.01,-0.710887 -0.0927,-1.060618 -0.31036,-1.060618 -0.37205,0 -0.872,-1.267323 -0.93529,-2.370791 -0.0642,-1.119787 -0.0239,-1.21223 0.3821,-0.875901 0.55435,0.459247 0.7242,-0.217439 0.5159,-2.055307 -0.18515,-1.63359 -0.49117,-2.429752 -1.0633,-2.766363 -0.56425,-0.331972 -0.83605,-1.350835 -0.96178,-3.6052152 -0.12788,-2.293534 -0.88263,-4.839082 -2.08618,-7.03600203 -0.72721,-1.327349 -2.14011,-3.00188297 -2.5329,-3.00188297 -0.11854,0 -0.5135,-0.477282 -0.87768,-1.060618 -0.40595,-0.650238 -0.61397,-0.843361 -0.53758,-0.499118 0.18087,0.815234 -0.11985,0.684354 -0.78623,-0.342177 -0.32045,-0.493628 -0.46107,-0.822505 -0.31251,-0.730854 0.36565,0.225578 0.3436,-0.188755 -0.0298,-0.561567 -0.57868,-0.577649 0.24192,-0.316022 0.99636,0.317662 l 0.73472,0.617142 -0.0382,-0.554748 c -0.021,-0.305109 -0.15931,-0.531639 -0.30736,-0.5034 -0.14805,0.0282 -0.52873,-0.224436 -0.84596,-0.5615 -0.31721,-0.337065 -0.69778,-0.621197 -0.84567,-0.631394 -0.14792,-0.01018 -1.10896,-0.978059 -2.13563,-2.150787 -1.02669,-1.172738 -2.51682,-2.5899078 -3.31141,-3.1492688 -1.0354,-0.728883 -1.35647,-1.080699 -1.13331,-1.241771 0.21118,-0.152432 0.16354,-0.176842 -0.14805,-0.07583 -0.28402,0.09206 -0.61816,-0.0315 -0.87501,-0.32353 -0.22855,-0.259835 -0.76929,-0.535667 -1.20163,-0.612963 -0.70149,-0.125409 -0.77148,-0.08479 -0.65041,0.377368 0.12384,0.472745 9.4e-4,0.444544 -1.40747,-0.323464 -0.84872,-0.462737 -2.01855,-1.261021 -2.5996,-1.773938 -0.58105,-0.512927 -1.64709,-1.123012 -2.36896,-1.355748 -0.72189,-0.232746 -1.31251,-0.509587 -1.31251,-0.615208 0,-0.10563 0.53438,-0.02575 1.1875,0.177446 0.65313,0.203223 1.69338,0.469284 2.31169,0.59124 1.78478,0.352043 0.59442,-0.345912 -1.45227,-0.851518 -0.91955,-0.227163 -2.29068,-0.581658 -3.04692,-0.787768 -3.44949,-0.940123 -5.12851,-1.288488 -5.25165,-1.089604 -0.1533,0.247621 -1.08714,0.16493 -1.99838,-0.176945 -0.34375,-0.128965 -0.83815,-0.187293 -1.09868,-0.129607 -0.33202,0.07348 0.0967,0.396261 1.43345,1.07921 1.04892,0.535874 1.99332,0.94864 2.09869,0.91726 0.40049,-0.119316 1.81698,0.691513 1.70716,0.977211 -0.0633,0.164665 0.0917,0.364918 0.34456,0.445015 0.59382,0.188141 0.78274,1.18 0.30891,1.621846 -0.31466,0.293404 -0.43554,0.259363 -0.83718,-0.235736 -0.60976,-0.751689 -0.89934,-0.463964 -0.36,0.357703 0.47093,0.71746 0.78483,0.785399 1.29157,0.279557 0.45774,-0.456937 1.33234,-0.240424 2.05916,0.509766 l 0.57262,0.591034 h -0.63512 c -0.61492,0 -0.91745,0.61067 -0.39149,0.790257 0.13399,0.04575 0.17962,0.32633 0.10139,0.623498 -0.12476,0.473943 -0.22915,0.510058 -0.85,0.294007 -0.5547,-0.193018 -0.85278,-0.15145 -1.37816,0.192188 -0.55856,0.365323 -0.60991,0.4828 -0.3079,0.704209 0.19937,0.146159 0.37334,0.655322 0.3866,1.1314718 0.0133,0.476594 0.20144,0.995169 0.41862,1.153694 0.21698,0.158375 0.32983,0.456183 0.25079,0.661793 -0.0844,0.219542 0.0329,0.441469 0.28403,0.537695 0.39603,0.151696 0.39315,0.189104 -0.0387,0.504304 -0.41511,0.303007 -0.42621,0.390763 -0.10087,0.797531 0.26737,0.334291 0.17064,0.307099 -0.36011,-0.101263 -0.39912,-0.307091 -0.77947,-0.504626 -0.84522,-0.438988 -0.26581,0.265333 0.77262,1.925569 1.33878,2.14045 0.7638,0.289876 0.79477,0.546137 0.0446,0.369012 -0.30937,-0.073 -0.9,-0.02867 -1.3125,0.09857 -0.4125,0.127267 -0.55312,0.241046 -0.3125,0.252836 0.24062,0.01179 0.4375,0.07762 0.4375,0.146235 0,0.267447 -0.89337,0.998225 -1.22033,0.998225 -0.18993,0 -0.55555,0.3913 -0.8125,0.869563 -0.25695,0.478254 -0.48124,0.787079 -0.49843,0.686278 -0.0172,-0.1008 -0.0453,-0.322115 -0.0625,-0.491807 -0.0172,-0.169684 -0.22851,-0.34645 -0.4696,-0.39279 -0.37862,-0.07282 -0.40341,0.0076 -0.18195,0.588911 0.20682,0.54300497 0.17496,0.73261797 -0.16477,0.98059697 -0.25228,0.184142 -0.35744,0.473245 -0.26222,0.720931 0.13103,0.340838 0.0393,0.388055 -0.52188,0.268645 -0.6641,-0.141302 -0.66855,-0.13469 -0.18084,0.268889 0.47342,0.39177203 0.47485,0.40925903 0.0268,0.32895403 -0.26027,-0.04669 -0.59776,-0.30941003 -0.75,-0.58392103 -0.15224,-0.274521 -0.3893,-0.581554 -0.52681,-0.682298 -0.1375,-0.100753 0.19998,-0.156902 0.74996,-0.124777 0.85435,0.0499 1.01109,-0.01953 1.07648,-0.477131 0.0621,-0.43457397 -0.14614,-0.62042397 -1.10452,-0.98578497 -0.64958,-0.247639 -1.38712,-0.434753 -1.63898,-0.415813 -0.25187,0.01896 -0.45793,-0.127041 -0.45793,-0.324398 0,-0.445967 -0.97347,-0.470849 -1.92575,-0.04923 -0.95921,0.424708 -2.45548,1.437289 -2.12384,1.437289 0.57002,0 -1.0988,2.03552797 -2.18476,2.664817 -1.41614,0.820619 -1.50712,0.95598 -1.51185,2.249211 -0.004,1.248535 0.30262,1.508898 1.13667,0.963375 0.66497,-0.434923 0.6721,-0.428179 0.96588,0.913044 0.11269,0.514511 0.0292,0.739852 -0.34909,0.941935 -0.45868,0.245035 -0.48506,0.204912 -0.34029,-0.517662 0.14826,-0.739974 0.12724,-0.767431 -0.38003,-0.496419 -0.41068,0.21939 -0.53697,0.519566 -0.53697,1.276311 0,0.921033 -0.0492,0.989445 -0.71125,0.989445 -0.3927,0 -0.91302,0.222549 -1.16174,0.49689 -0.70479,0.777402 -2.54747,1.7639322 -2.98307,1.5970782 -0.21668,-0.083 -0.39396,-0.02943 -0.39396,0.119108 0,0.166921 -0.28636,0.212845 -0.75,0.120289 -0.85211,-0.170127 -0.94244,0.03547 -0.31819,0.723997 0.51301,0.565859 0.57474,2.197957 0.10453,2.763524 -0.29545,0.355363 -0.4598,0.335169 -1.68898,-0.207469 -1.43111,-0.631769 -2.09738,-0.599899 -2.09738,0.100329 0,0.230813 -0.225,0.860187 -0.5,1.398637 -0.60655,1.187592 -0.66491,2.370791 -0.11694,2.370791 0.21068,0 0.47269,0.241876 0.58225,0.537505 0.15852,0.427774 0.40366,0.537507 1.20076,0.537507 1.10592,0 2.65816,-0.771545 2.48075,-1.233065 -0.13285,-0.345583 0.44994,-0.874855 1.4157,-1.285688 0.37813,-0.160855 0.6875,-0.456692 0.6875,-0.657416 0,-0.560595 0.48699,-0.735268 1.1148,-0.399873 0.45997,0.245734 0.70823,0.230134 1.31398,-0.08253 0.75576,-0.390121 1.32124,-0.194688 1.32124,0.456644 0,0.271352 0.87631,1.250279 2.10462,2.351059 0.85199,0.763537 0.75067,1.385328 -0.23421,1.437459 -1.24418,0.06583 -1.26554,0.08517 -0.65521,0.59274 0.64681,0.537884 1.03481,0.628347 1.03481,0.241254 0,-0.137256 0.23075,-0.479904 0.51278,-0.761442 0.34966,-0.349035 0.45991,-0.678223 0.34654,-1.034766 -0.14004,-0.440431 -0.0829,-0.501126 0.36222,-0.384932 0.29065,0.07583 0.52846,0.03613 0.52846,-0.08828 0,-0.1244 -0.0856,-0.226191 -0.19023,-0.226191 -0.29183,0 -2.06324,-1.591494 -2.0614,-1.852027 10e-4,-0.126447 -0.16622,-0.415049 -0.37137,-0.641325 -0.32751,-0.361248 -0.32848,-0.470161 -0.008,-0.893105 0.20389,-0.269031 0.36855,-0.344799 0.373,-0.171626 0.012,0.468605 1.01911,1.549427 2.06317,2.2142 0.60661,0.386243 0.88081,0.720818 0.78819,0.961751 -0.0781,0.203205 0.11929,0.791531 0.43867,1.307391 0.31939,0.515869 0.6041,1.097055 0.6327,1.291535 0.0869,0.591363 0.6786,0.80002 0.93527,0.329848 0.12773,-0.233972 0.34987,-0.502777 0.49366,-0.597333 0.17162,-0.112883 0.12762,-0.327171 -0.12811,-0.623894 -0.7036,-0.816356 -0.84118,-1.177359 -0.3816,-1.001319 0.2288,0.08762 0.41601,0.05056 0.41601,-0.08234 0,-0.132945 0.28126,-0.241725 0.625,-0.241725 0.5,0 0.62501,0.124777 0.62501,0.623895 0,0.343139 -0.0237,0.651964 -0.0527,0.686278 -0.029,0.03433 0.20841,0.362145 0.52753,0.728514 0.67837,0.778817 1.76015,1.134482 2.04605,0.672715 0.15376,-0.248356 0.33148,-0.249393 0.86864,-0.0047 0.56106,0.255184 0.74718,0.242225 1.10009,-0.07658 0.62655,-0.566019 0.95152,-0.470783 1.12782,0.3305 0.17564,0.798246 -0.28748,2.950355 -0.68808,3.197494 -0.14254,0.0879 -0.68521,0.143226 -1.20594,0.122854 -0.52073,-0.02037 -1.02115,0.08309 -1.11205,0.229925 -0.23772,0.383942 -2.50956,0.04253 -3.81784,-0.573697 -0.89252,-0.420416 -1.19213,-0.459087 -1.71482,-0.221371 -0.46431,0.211185 -0.59786,0.423444 -0.50044,0.79537 0.165,0.629809 -0.45924,0.9206 -1.108,0.516161 -0.25493,-0.158931 -0.61349,-0.288952 -0.79681,-0.288952 -0.18332,0 -0.57526,-0.277784 -0.87098,-0.617282 -0.29572,-0.339508 -0.85038,-0.693531 -1.23259,-0.78673 -1.07027,-0.260967 -1.85938,-0.952348 -1.49832,-1.312757 0.31146,-0.310919 0.48207,-1.759659 0.21165,-1.797265 -2.10975,-0.293422 -4.31763,-0.360484 -6.90504,-0.209722 -0.77513,0.04518 -1.26621,-0.06508 -1.58917,-0.356871 -0.42842,-0.387027 -0.49517,-0.388791 -0.80079,-0.02122 -0.18338,0.220569 -0.73321,0.588948 -1.22184,0.81862 -0.55986,0.263145 -1.07936,0.784872 -1.4047,1.41069 -0.39331,0.756585 -0.73651,1.054799 -1.44098,1.252099 -0.50859,0.142444 -1.58977,0.855047 -2.40263,1.583562 l -1.47792,1.324566 -0.007,1.446353 c -0.005,1.002894 -0.17011,1.736363 -0.53913,2.392203 -0.68799,1.22275 -0.60762,2.96735 0.17275,3.74979 0.29807,0.29886 0.6538,0.9478 0.79053,1.4421 0.13673,0.49431 0.89722,1.63166 1.68997,2.52746 1.30507,1.47468 1.5325,1.62869 2.40501,1.62869 0.53,0 1.36239,0.16633 1.84976,0.3696 0.56005,0.23359 1.59202,0.35514 2.80448,0.33031 1.97809,-0.0405 3.04336,0.28229 3.04336,0.92221 0,0.46048 0.78078,0.87345 1.65139,0.87345 0.37634,0 0.87721,0.174314 1.11304,0.387364 0.38604,0.34874 0.39468,0.50054 0.0867,1.522117 -0.3853,1.27798 -0.28297,1.5892 0.88856,2.70231 0.43048,0.409 1.01795,1.25125 1.3055,1.87167 0.28755,0.620422 0.64509,1.392002 0.79454,1.714622 0.21586,0.46602 0.19158,0.64555 -0.11815,0.87346 -0.51346,0.3778 -0.97153,1.25645 -0.97153,1.86353 0,0.26756 0.428,0.87247 0.9511,1.34423 0.52311,0.47175 1.10146,1.22007 1.28522,1.66292 0.18376,0.44286 0.64894,0.96771 1.03373,1.16633 0.38478,0.19863 0.84706,0.56864 1.02729,0.82225 0.41925,0.58996 0.86569,0.73552 1.95268,0.63665 0.48125,-0.0437 1.51661,-0.13092 2.30081,-0.19367 z m 0.94921,-40.105072 c 0,-0.124409 0.22499,-0.2262 0.5,-0.2262 0.275,0 0.5,0.04301 0.5,0.09568 0,0.05263 -0.225,0.154404 -0.5,0.226191 -0.27501,0.07178 -0.5,0.02877 -0.5,-0.09567 z m 0.54999,-0.775223 c -0.43052,-0.429762 -0.37033,-0.922513 0.26826,-2.196099 0.45886,-0.915128 0.69049,-1.125162 1.25131,-1.13466 0.37853,-0.0066 0.64931,0.104884 0.60175,0.247327 -0.0475,0.142435 0.0599,0.405099 0.2388,0.583686 0.26704,0.26657 0.43493,0.252997 0.93766,-0.07583 0.58129,-0.380198 0.6896,-0.360428 2.13232,0.389093 0.83597,0.434299 1.51993,0.882531 1.51993,0.996074 0,0.621009 -0.80388,0.951264 -2.06278,0.847435 -2.06271,-0.170107 -2.49605,-0.130446 -2.93814,0.268927 -0.49704,0.449015 -1.53401,0.488413 -1.94911,0.07404 z m 3.09955,-3.128243 c -0.0822,-0.08206 -0.14953,-0.239972 -0.14953,-0.350826 0,-0.272116 1.50911,-1.037133 1.6899,-0.856669 0.0789,0.07876 0.0247,0.143179 -0.12046,0.143179 -0.14513,0 -0.24825,0.180973 -0.22916,0.402174 0.0352,0.407579 -0.91592,0.936474 -1.19075,0.662142 z M 131.269,7.9357348 c 0,-0.166769 -0.16857,-0.238387 -0.375,-0.159308 -0.46365,0.177605 -1.125,-0.05584 -1.125,-0.397063 0,-0.152479 0.14133,-0.136322 0.35482,0.04056 0.27446,0.22737 0.40186,0.220163 0.5625,-0.03178 0.11423,-0.179181 0.32018,-0.337989 0.45768,-0.35291 0.87877,-0.09535 1.36259,-0.471331 1.51854,-1.180086 0.0947,-0.43016 0.35419,-0.917261 0.57678,-1.082426 0.33693,-0.250026 0.35237,-0.385875 0.0922,-0.811244 -0.44056,-0.720299 -0.40257,-0.895141 0.39532,-1.819193 0.3893,-0.450853 0.77952,-1.016269 0.86716,-1.25646603 0.0876,-0.240198 0.26872,-0.436725 0.40243,-0.436725 0.52813,0 0.49686,0.491346 -0.0744,1.16903103 -0.41549,0.492902 -0.58601,0.979636 -0.55384,1.580864 0.0422,0.790078 0.11342,0.867101 0.78615,0.851236 0.40681,-0.0096 0.92917,-0.06574 1.16078,-0.124777 0.23161,-0.05904 0.43423,0.0047 0.45026,0.142151 0.0161,0.137209 -0.32652,0.322096 -0.76125,0.410852 -0.43474,0.08875 -0.97486,0.353515 -1.20028,0.588364 -0.38245,0.398449 -0.37225,0.415737 0.15265,0.258608 0.46344,-0.138727 0.5625,-0.07215 0.5625,0.378114 0,0.469217 -0.0558,0.500325 -0.39405,0.220031 -0.32657,-0.270549 -0.43295,-0.265107 -0.62117,0.03188 -0.12491,0.197056 -0.22884,0.604333 -0.23095,0.905065 -0.005,0.664358 -0.38739,0.931362 -1.37883,0.961893 -0.4125,0.01274 -0.94688,0.111582 -1.18751,0.21975 -0.2846,0.127926 -0.4375,0.09074 -0.4375,-0.1063 z m 14.62505,-12.788025 -1,-1.025871 1.06251,0.813762 c 0.58437,0.447581 1.0625,0.916639 1.0625,1.042358 0,0.320691 -0.011,0.31258 -1.12501,-0.830249 z m 4.46833,57.6459272 c 0.9544,-0.86271 2.9067,-3.95289 2.9067,-4.60086 0,-0.790392 -0.37644,-0.724082 -1.04968,0.18492 -0.31057,0.41931 -1.11298,1.09917 -1.78313,1.51078 -0.92038,0.56531 -1.18826,0.86377 -1.09497,1.2199 0.0715,0.27315 -0.0754,0.65123 -0.34936,0.8987 -0.26008,0.23496 -0.47287,0.63439 -0.47287,0.88763 0,0.65691 1.06962,0.59826 1.84331,-0.10107 z m 18.90293,-24.955722 c -0.002,-0.308825 -0.11288,-0.729948 -0.24618,-0.935841 -0.18026,-0.278445 -0.24331,-0.134606 -0.24617,0.56151 -0.002,0.514708 0.10867,0.935832 0.24617,0.935832 0.1375,0 0.24828,-0.252676 0.24618,-0.561501 z m -32.24629,-6.521784 c 0,-0.05264 -0.28125,-0.149347 -0.625,-0.214948 -0.34375,-0.06555 -0.625,-0.02254 -0.625,0.09569 0,0.118221 0.28125,0.214947 0.625,0.214947 0.34375,0 0.625,-0.04301 0.625,-0.09569 z m 4.50002,-0.278651 c 0.33782,-0.406325 0.25701,-0.457117 -0.35455,-0.222852 -0.21751,0.08328 -0.39546,0.25176 -0.39546,0.37433 0,0.345196 0.40509,0.263382 0.75001,-0.151478 z m -13.38998,-3.523242 c 0.18871,-0.750566 0.10325,-0.910129 -0.38678,-0.722148 -0.44537,0.170834 -0.53202,1.37549 -0.099,1.37549 0.17679,0 0.39537,-0.294008 0.48572,-0.653342 z m -3.36008,-0.344893 c 0,-0.137256 -0.1125,-0.249554 -0.25,-0.249554 -0.1375,0 -0.25,0.112298 -0.25,0.249554 0,0.137255 0.1125,0.249564 0.25,0.249564 0.1375,0 0.25,-0.112309 0.25,-0.249564 z m 3.50001,-1.123002 c 0,-0.205884 -0.1125,-0.374341 -0.25,-0.374341 -0.1375,0 -0.25,0.168457 -0.25,0.374341 0,0.205883 0.1125,0.37433 0.25,0.37433 0.1375,0 0.25,-0.168447 0.25,-0.37433 z m 44.54912,-6.8004362 c -0.0725,-0.377453 -0.17995,-0.542193 -0.2389,-0.366097 -0.10634,0.31756 0.0838,1.052385 0.27242,1.052385 0.054,0 0.0389,-0.308835 -0.0335,-0.686288 z m -46.96919,-0.40309 c 0.2131,-0.324652 0.29414,-0.689626 0.1801,-0.811064 -0.42655,-0.454211 -0.73991,-2.689322 -0.42968,-3.064803 0.2282,-0.2762 0.22182,-0.381085 -0.0283,-0.465087 -0.24808,-0.08328 -0.25547,-0.189613 -0.0319,-0.458531 0.22863,-0.275002 0.20722,-0.350072 -0.0998,-0.350072 -0.21498,0 -0.46039,0.112307 -0.54537,0.249563 -0.085,0.137256 -0.26701,0.249555 -0.40451,0.249555 -0.1375,0 -0.16973,-0.129654 -0.0716,-0.288113 0.10681,-0.172512 0.069,-0.220607 -0.0943,-0.119872 -0.15,0.09253 -0.26486,0.362568 -0.25525,0.600069 0.01,0.23749 -0.0658,0.628336 -0.16765,0.868534 -0.11526,0.271889 -0.0751,0.436724 0.10637,0.436724 0.16033,0 0.22678,0.104545 0.14767,0.232313 -0.0791,0.127776 -0.0295,0.302854 0.11025,0.389063 0.38945,0.240273 0.3017,0.875967 -0.12093,0.875967 -0.20625,0 -0.375,0.168447 -0.375,0.374331 0,0.205893 -0.10897,0.374341 -0.24215,0.374341 -0.13319,0 -0.18297,0.153959 -0.11063,0.34213 0.0723,0.188169 -0.0718,0.435016 -0.32035,0.54854 -0.33742,0.15413 -0.13527,0.247168 0.79813,0.367333 0.68751,0.08847 1.32144,0.178568 1.40875,0.20013 0.0873,0.0216 0.3331,-0.226408 0.5462,-0.551051 z m -29.597604,-1.21903 c -0.01472,-0.679675 -0.05237,-0.730212 -0.23243,-0.311947 -0.296795,0.689457 -0.296795,1.123012 0,1.123012 0.137499,0 0.242094,-0.364984 0.23243,-0.811065 z m 27.113714,-0.789813 c 0.25287,-0.468719 0.38431,-0.974071 0.2921,-1.123013 -0.21061,-0.340177 -0.88816,-0.356372 -0.88816,-0.02122 0,0.137256 -0.16051,0.249563 -0.35669,0.249563 -0.28054,0 -1.14331,1.253024 -1.14331,1.660462 0,0.04754 0.36817,0.0864 0.81815,0.0864 0.67472,0 0.89875,-0.149405 1.27791,-0.852207 z m 0.92038,-7.64152303 c 0.64141,-0.34265797 0.64244,-1.23899897 0.001,-1.23899897 -0.26518,0 -0.65089,-0.168456 -0.85714,-0.37434 -0.45379,-0.452985 -0.99234,-0.493977 -0.84896,-0.06461 0.0569,0.170344 -0.0516,0.464445 -0.24103,0.653559 -0.29259,0.292073 -0.28038,0.414502 0.0811,0.813281 0.475,0.52393197 1.13841,0.59904997 1.86455,0.21111797 z m 17.23363,-1.73811597 c 0,-0.137255 -0.1125,-0.249554 -0.25,-0.249554 -0.1375,0 -0.25,0.112299 -0.25,0.249554 0,0.137256 0.1125,0.249554 0.25,0.249554 0.1375,0 0.25,-0.112298 0.25,-0.249554 z m -23.84369,-1.175624 c 1.3088,-0.60289 1.76786,-0.677573 4.21862,-0.686287 2.47736,-0.0085 2.74273,-0.05311 2.67655,-0.446497 -0.0404,-0.240197 0.0506,-0.436724 0.20225,-0.436724 0.15165,0 0.20619,0.112308 0.12121,0.249563 -0.32212,0.520274 0.44921,0.222692 0.89757,-0.346298 0.25824,-0.327709 0.73193,-0.661585 1.05263,-0.741937 0.32071,-0.08036 0.73319,-0.426038 0.91664,-0.768196 0.18344,-0.342158 0.42343,-0.566641 0.53331,-0.498863 0.10988,0.06782 0.3174,-0.09614 0.46117,-0.364285 0.14376,-0.268145 0.71191,-0.685958 1.26254,-0.928466 0.94187,-0.414814 1.31937,-0.843983 0.74237,-0.843983 -0.1784,0 -0.1784,-0.149969 0,-0.4827148 0.36276,-0.67662 0.36937,-0.666716 -0.74121,-1.110297 -1.11357,-0.44477 -1.12387,-0.461785 -0.69502,-1.147261 0.25401,-0.406024 0.21826,-0.60355 -0.21393,-1.18201 -0.2854,-0.38199 -0.84451,-0.754991 -1.24248,-0.828882 -0.72141,-0.133954 -0.72174,-0.13486 -0.10949,-0.302053 0.33774,-0.09225 0.53822,-0.243414 0.44551,-0.335961 -0.0927,-0.09253 -0.51328,-0.02575 -0.9346,0.14848 -1.09486,0.452702 -1.20017,0.13734 -0.25,-0.748672 0.45024,-0.41985 0.75546,-0.826411 0.67826,-0.90348 -0.23145,-0.231039 -1.55843,0.538298 -1.48893,0.863223 0.0354,0.16543 -0.1996,0.40094 -0.52217,0.523368 -0.60328,0.228955 -1.91717,1.621271 -1.91717,2.031604 0,0.43862 0.73357,0.228237 1.01146,-0.290074 0.15348,-0.286273 0.34222,-0.457437 0.41942,-0.380367 0.0772,0.07706 -0.002,0.311287 -0.17586,0.520481 -0.26416,0.317729 -0.23915,0.380603 0.15187,0.381763 0.25746,7.74e-4 0.90348,0.122061 1.43559,0.26955 0.71404,0.197904 0.89414,0.341366 0.6875,0.547626 -0.20663,0.206271 -0.35856,0.201036 -0.57997,-0.01999 -0.67234,-0.67114 -2.19911,-0.07423 -2.11794,0.828099 0.0303,0.336668 -0.32521,0.675714 -1.20707,1.1511938 -0.68751,0.370691 -1.37353,0.784203 -1.5245,0.918911 -0.15097,0.1347 -0.48847,0.28882 -0.75,0.34248 -0.27304,0.05603 -0.45951,0.286744 -0.43793,0.541872 0.0253,0.298555 -0.0847,0.397459 -0.33531,0.301478 -1.09625,-0.419925 -4.40528,2.597256 -4.48024,4.0851 -0.0212,0.420756 0.0468,0.765018 0.1511,0.765018 0.1043,0 0.85051,-0.304431 1.65825,-0.676516 z m 8.34226,-10.0552958 c -0.30339,-0.187171 -0.2936,-0.247149 0.0626,-0.383602 0.6377,-0.244273 1.06773,-0.03311 0.64527,0.316907 -0.21642,0.179296 -0.48445,0.204545 -0.70791,0.06668 z m 16.25143,9.8359708 c 0,-0.08093 -0.23857,-0.340007 -0.53014,-0.575686 -0.39323,-0.317861 -0.5264,-0.698371 -0.51569,-1.473443 0.008,-0.574705 0.0844,-1.15791 0.16989,-1.295996 0.0855,-0.138085 0.0819,-0.369897 -0.008,-0.515123 -0.0915,-0.147801 -0.36368,0.108809 -0.61822,0.582865 -0.37753,0.703143 -0.41304,1.04199 -0.20923,1.995932 0.23215,1.0865 0.45802,1.312502 1.39893,1.399664 0.17187,0.01594 0.3125,-0.03725 0.3125,-0.118213 z m -7.79133,-2.53937 c 0.21466,0.214278 0.2913,0.215872 0.2913,0.0057 0,-0.15661 -0.1125,-0.354147 -0.24999,-0.438979 -0.1375,-0.0848 -0.25,-0.266531 -0.25,-0.403787 0,-0.137255 0.10472,-0.184944 0.23272,-0.105979 0.25048,0.154526 0.64943,-0.314947 0.44286,-0.52115 -0.0685,-0.06838 -0.52974,-0.04838 -1.02504,0.04433 -0.9547,0.178785 -1.10221,0.518444 -0.61764,1.422264 0.2572,0.479706 0.31025,0.490355 0.5837,0.117052 0.22896,-0.312561 0.37036,-0.341187 0.59209,-0.119844 z m 31.5414,0.346298 c 0,-0.05178 -0.19687,-0.248346 -0.4375,-0.436723 -0.39652,-0.310419 -0.40536,-0.301591 -0.0944,0.09422 0.3266,0.4157 0.53189,0.547891 0.53189,0.342497 z m -28.25009,-2.401351 c 0,-0.137255 -0.11249,-0.249553 -0.24999,-0.249553 -0.1375,0 -0.25,0.112298 -0.25,0.249553 0,0.137256 0.1125,0.249555 0.25,0.249555 0.1375,0 0.24999,-0.112299 0.24999,-0.249555 z m 1.07843,-0.343139 c 0.0896,-0.232916 -0.0625,-0.343148 -0.47326,-0.343148 -0.59762,0 -0.76295,0.196036 -0.4385,0.519915 0.28099,0.280491 0.77261,0.185171 0.91176,-0.176767 z m 3.48128,-2.0843378 c 0.79259,-0.227624 0.19752,-0.536865 -0.75177,-0.390678 -0.51311,0.07904 -0.98592,0.190029 -1.05069,0.246697 -0.23282,0.203686 0.62606,0.566425 0.99277,0.419284 0.20624,-0.08272 0.57061,-0.206647 0.80969,-0.275303 z m 17.2975,-1.42283 c -0.26474,-0.193244 -0.52957,-0.303232 -0.58849,-0.244404 -0.059,0.05886 0.10946,0.265061 0.37421,0.458305 0.26475,0.193245 0.52957,0.303222 0.5885,0.244404 0.059,-0.05886 -0.10946,-0.26506 -0.37422,-0.458305 z m -30.85723,-3.88596 c 0,-0.137265 -0.10586,-0.249564 -0.23525,-0.249564 -0.12939,0 -0.30478,0.112299 -0.38976,0.249564 -0.085,0.137255 0.0209,0.249553 0.23525,0.249553 0.21436,0 0.38976,-0.112298 0.38976,-0.249553 z m 10.50003,-2.246014 c 0,-0.137265 -0.11914,-0.249564 -0.26476,-0.249564 -0.14562,0 -0.19522,0.112299 -0.11024,0.249564 0.0849,0.137255 0.20412,0.249553 0.26476,0.249553 0.0607,0 0.11024,-0.112298 0.11024,-0.249553 z m -16.25006,1.871673 c 0.17118,-0.205884 0.41799,-0.374331 0.54847,-0.374331 0.13049,0 0.0685,0.168447 -0.13775,0.374331 -0.20625,0.205883 -0.45306,0.374341 -0.54847,0.374341 -0.0954,0 -0.0334,-0.168458 0.13775,-0.374341 z m 1.28821,-3.490332 c 0.2061,-0.205742 5.95077,-1.126473 7.02833,-1.126473 1.71976,0 0.95532,0.194178 -2.88103,0.731826 -3.89531,0.545909 -4.34135,0.588354 -4.1473,0.394647 z"
       id="path828"
       inkscape:connector-curvature="0"
       inkscape:export-xdpi="36"
       inkscape:export-ydpi="36" />
    <circle
       style="fill:#ffffff;fill-opacity:0.23529412;stroke:#000000;stroke-width:0.19559526;stroke-opacity:0"
       id="path1408"
       cx="134.69656"
       cy="18.737547"
       r="42.402203" />
  </g>
</svg>
